<?xml version="1.0" standalone="no"?>
<!DOCTYPE svg PUBLIC "-//W3C//DTD SVG 20010904//EN"
 "http://www.w3.org/TR/2001/REC-SVG-20010904/DTD/svg10.dtd">
<svg version="1.0" xmlns="http://www.w3.org/2000/svg"
 width="64.000000pt" height="64.000000pt" viewBox="0 0 64.000000 64.000000"
 preserveAspectRatio="xMidYMid meet">

<g transform="translate(0.000000,64.000000) scale(0.100000,-0.100000)"
fill="#000000" stroke="none">
<path d="M84 475 c-4 -8 -4 -22 0 -30 5 -13 38 -15 238 -13 l233 3 0 25 0 25
-233 3 c-200 2 -233 0 -238 -13z"/>
<path d="M84 335 c-4 -8 -4 -22 0 -30 5 -13 38 -15 238 -13 l233 3 0 25 0 25
-233 3 c-200 2 -233 0 -238 -13z"/>
<path d="M84 195 c-4 -8 -4 -22 0 -30 5 -13 38 -15 238 -13 l233 3 0 25 0 25
-233 3 c-200 2 -233 0 -238 -13z"/>
</g>
</svg>
